<?xml version="1.0"?><svg fill="#000000" xmlns="http://www.w3.org/2000/svg" viewBox="0 0 24 24" width="64px" height="64px">    <path d="M 3.96875 2 C 3.43375 2 3 2.43375 3 2.96875 L 3 20 C 3 21.105 3.895 22 5 22 L 11.759766 22 C 12.187766 22 12.486563 21.583734 12.351562 21.177734 C 12.124562 20.492734 12 19.762 12 19 C 12 18.66 12.033078 18.327 12.080078 18 L 6.5 18 C 6.224 18 6 17.776 6 17.5 L 6 16.5 C 6 16.224 6.224 16 6.5 16 L 12.683594 16 C 13.807594 13.637 16.21 12 19 12 C 19.464 12 19.915516 12.047766 20.353516 12.134766 C 20.691516 12.201766 21 11.920172 21 11.576172 L 21 2.96875 C 21 2.43375 20.56625 2 20.03125 2 L 19.710938 2 C 19.379938 2 19.042578 2.1532187 18.892578 2.4492188 C 18.728578 2.7752187 18.39 3 18 3 C 17.61 3 17.271422 2.7752187 17.107422 2.4492188 C 16.957422 2.1532187 16.620062 2 16.289062 2 L 15.710938 2 C 15.379938 2 15.042578 2.1532187 14.892578 2.4492188 C 14.728578 2.7752187 14.39 3 14 3 C 13.61 3 13.271422 2.7752187 13.107422 2.4492188 C 12.957422 2.1532187 12.620063 2 12.289062 2 L 11.710938 2 C 11.379938 2 11.042578 2.1532187 10.892578 2.4492188 C 10.728578 2.7752187 10.39 3 10 3 C 9.61 3 9.2714219 2.7752187 9.1074219 2.4492188 C 8.9574219 2.1532187 8.6200625 2 8.2890625 2 L 7.7109375 2 C 7.3799375 2 7.0425781 2.1532187 6.8925781 2.4492188 C 6.7285781 2.7752187 6.39 3 6 3 C 5.61 3 5.2714219 2.7752187 5.1074219 2.4492188 C 4.9574219 2.1532187 4.6200625 2 4.2890625 2 L 3.96875 2 z M 6.5 7 L 17.5 7 C 17.776 7 18 7.224 18 7.5 L 18 8.5 C 18 8.776 17.776 9 17.5 9 L 6.5 9 C 6.224 9 6 8.776 6 8.5 L 6 7.5 C 6 7.224 6.224 7 6.5 7 z M 6.5 12 L 13.5 12 C 13.776 12 14 12.224 14 12.5 L 14 13.5 C 14 13.776 13.776 14 13.5 14 L 6.5 14 C 6.224 14 6 13.776 6 13.5 L 6 12.5 C 6 12.224 6.224 12 6.5 12 z M 19 14 C 16.25 14 14 16.25 14 19 C 14 21.75 16.25 24 19 24 C 21.75 24 24 21.75 24 19 C 24 16.25 21.75 14 19 14 z M 17.490234 16.005859 L 20.804688 16.005859 L 20.804688 16.984375 L 18.453125 16.984375 L 18.308594 18.255859 C 18.348594 18.234859 18.398031 18.209594 18.457031 18.183594 C 18.517031 18.158594 18.585109 18.134328 18.662109 18.111328 C 18.739109 18.088328 18.823063 18.069687 18.914062 18.054688 C 19.004062 18.040688 19.099266 18.03125 19.197266 18.03125 C 19.482266 18.03125 19.735031 18.076969 19.957031 18.167969 C 20.181031 18.258969 20.371391 18.389547 20.525391 18.560547 C 20.679391 18.730547 20.797906 18.939547 20.878906 19.185547 C 20.959906 19.431547 21 19.709484 21 20.021484 C 21 20.284484 20.959906 20.535437 20.878906 20.773438 C 20.797906 21.011437 20.673812 21.221344 20.507812 21.402344 C 20.342813 21.584344 20.135719 21.729891 19.886719 21.837891 C 19.635719 21.945891 19.340953 21.998047 19.001953 21.998047 C 18.747953 21.998047 18.499719 21.959812 18.261719 21.882812 C 18.023719 21.805812 17.811906 21.694875 17.628906 21.546875 C 17.445906 21.399875 17.295641 21.217906 17.181641 21.003906 C 17.068641 20.790906 17.009 20.547438 17 20.273438 L 18.160156 20.273438 C 18.185156 20.520437 18.271922 20.710656 18.419922 20.847656 C 18.565922 20.984656 18.760047 21.052734 18.998047 21.052734 C 19.147047 21.052734 19.272906 21.02575 19.378906 20.96875 C 19.481906 20.91175 19.567766 20.834328 19.634766 20.736328 C 19.699766 20.639328 19.748297 20.522672 19.779297 20.388672 C 19.809297 20.254672 19.826172 20.109078 19.826172 19.955078 C 19.826172 19.801078 19.807531 19.66025 19.769531 19.53125 C 19.731531 19.40325 19.673703 19.294125 19.595703 19.203125 C 19.517703 19.112125 19.417828 19.042187 19.298828 18.992188 C 19.179828 18.942187 19.038953 18.917969 18.876953 18.917969 C 18.767953 18.917969 18.67375 18.926313 18.59375 18.945312 C 18.51375 18.964312 18.443859 18.987578 18.380859 19.017578 C 18.318859 19.047578 18.263797 19.082094 18.216797 19.121094 C 18.167797 19.160094 18.123031 19.199234 18.082031 19.240234 L 17.150391 19.011719 L 17.490234 16.005859 z"/></svg>