<?xml version="1.0"?><svg fill="#000000" xmlns="http://www.w3.org/2000/svg" viewBox="0 0 24 24" width="64px" height="64px">    <path d="M 7.5 1 C 6.12 1 5 2.12 5 3.5 L 5 20.5 C 5 21.88 6.12 23 7.5 23 L 16.5 23 C 17.88 23 19 21.88 19 20.5 L 19 12.908203 C 21.82834 12.427922 24 9.960385 24 7 C 24 3.6981361 21.301864 1 18 1 C 17.693816 1 17.395693 1.0314397 17.101562 1.0761719 C 16.908737 1.0279464 16.708006 1 16.5 1 L 7.5 1 z M 18 3 C 20.220984 3 22 4.7790164 22 7 C 22 9.2209836 20.220984 11 18 11 C 15.779016 11 14 9.2209836 14 7 C 14 4.7790164 15.779016 3 18 3 z M 7 4 L 12.814453 4 C 12.299831 4.8842671 12 5.9078231 12 7 C 12 9.960385 14.17166 12.427922 17 12.908203 L 17 18 L 7 18 L 7 4 z M 18.490234 4.5996094 L 16.525391 5.3769531 C 16.207391 5.5069531 16 5.8152031 16 6.1582031 C 16.048 6.5642031 16.369062 6.6672969 16.789062 6.5292969 L 17.164062 6.4082031 L 17.164062 8.5839844 C 17.164062 9.0349844 17.529469 9.4003906 17.980469 9.4003906 C 18.431469 9.4003906 18.796875 9.0349844 18.796875 8.5839844 L 18.796875 4.5996094 L 18.490234 4.5996094 z M 12 18.875 C 12.622 18.875 13.125 19.378 13.125 20 C 13.125 20.622 12.622 21.125 12 21.125 C 11.378 21.125 10.875 20.622 10.875 20 C 10.875 19.378 11.378 18.875 12 18.875 z"/></svg>