<?xml version="1.0"?><svg fill="#000000" xmlns="http://www.w3.org/2000/svg" viewBox="0 0 24 24" width="64px" height="64px">    <path d="M 9 2 C 7.9069372 2 7 2.9069372 7 4 L 7 7 L 6 7 C 5.448 7 5 6.552 5 6 L 5 4.2011719 C 5 3.6841719 4.3909063 3.4304375 4.0039062 3.7734375 C 3.3889063 4.3204375 3 5.113 3 6 L 3 19 C 3 20.105 3.895 21 5 21 L 19 21 C 20.105 21 21 20.105 21 19 L 21 9 C 21 7.895 20.105 7 19 7 L 19 4 C 19 2.9069372 18.093063 2 17 2 L 9 2 z M 9 4 L 11 4 L 11 7 L 9 7 L 9 4 z M 13 4 L 17 4 L 17 7 L 13 7 L 13 4 z M 17 13 C 17.552 13 18 13.448 18 14 C 18 14.552 17.552 15 17 15 C 16.448 15 16 14.552 16 14 C 16 13.448 16.448 13 17 13 z"/></svg>