<?xml version="1.0" encoding="utf-8"?>
<!-- Generator: Adobe Illustrator 22.0.0, SVG Export Plug-In . SVG Version: 6.00 Build 0)  -->
<svg version="1.1" id="Layer_1" xmlns="http://www.w3.org/2000/svg" xmlns:xlink="http://www.w3.org/1999/xlink" x="0px" y="0px"
	 viewBox="0 0 841.9 595.3" style="enable-background:new 0 0 841.9 595.3;" xml:space="preserve">
<style type="text/css">
	.st0{fill:#FFB600;}
	.st1{fill:#1E2D7A;}
	.st2{fill:#1D3985;}
	.st3{fill:#1B75BC;}
	.st4{fill:#1C69B1;}
	.st5{fill:#1C519B;}
	.st6{fill:#1D4590;}
	.st7{fill:#FFFFFF;}
</style>
<g>
	<rect x="168.6" y="256.8" class="st2" width="19.8" height="19.8"/>
	<rect x="148.8" y="276.5" class="st3" width="19.8" height="19.8"/>
	<rect x="109.3" y="276.5" class="st1" width="19.8" height="19.8"/>
	<rect x="168.6" y="296.3" class="st4" width="19.8" height="19.8"/>
	<rect x="129.1" y="296.3" class="st5" width="19.8" height="19.8"/>
	<rect x="148.8" y="316" class="st3" width="19.8" height="19.8"/>
	<rect x="92.4" y="309.2" class="st6" width="19.8" height="19.8"/>
	<rect x="95.7" y="277.5" class="st3" width="6.6" height="6.6"/>
	<rect x="93" y="288.3" class="st1" width="6.6" height="6.6"/>
	<rect x="59" y="288.3" class="st4" width="6.6" height="6.6"/>
	<rect x="70.1" y="277.5" class="st2" width="6.6" height="6.6"/>
	<rect x="37.2" y="277.5" class="st4" width="6.6" height="6.6"/>
	<path class="st0" d="M313.8,183.1l-16.1,57c-0.5,1.4-1,3.6-1.6,6.4c-0.6,2.9-1.3,6.2-2,10c-1.1-4.8-2-8.6-2.6-11.4
		c-0.6-2.8-1-4.5-1.2-5.3l-15.8-56.7h-9.7L243,249.8c-2.5,7.5-4.4,12.6-5.7,15.4c-1.3,2.8-2.8,4.9-4.3,6.3c-0.9,0.9-1.9,1.7-3,2.4
		v22.9h33V242c0-2.1,0-4.9-0.1-8.4c-0.1-3.5-0.2-7.7-0.3-12.6c1.1,5.4,2,9.8,2.6,13c0.7,3.2,1.3,6,2,8.5l14.2,54.4h25.5l14-55.7
		l0.2-1c1.8-7,3.3-13.4,4.5-19.2c-0.1,3.4-0.1,6.8-0.1,10c0,3.2-0.1,6.5-0.1,9.9l-0.3,56h33V183.1H313.8z"/>
	<path class="st0" d="M399.8,221v23.3c-2.7,1.4-5.2,2.9-5.2,2.9v-16.1C394.6,231.1,398.3,225.6,399.8,221z"/>
	<path class="st0" d="M415.9,212.3c-0.6,0-1.1-0.5-1.1-1.2c0-0.7,0.5-1.2,1.1-1.2h9.4c0.6,0,1,0.5,1,1.2c0,0.6-0.5,1.2-1,1.2H415.9z
		"/>
	<path class="st0" d="M426.8,282.4c0.7,4.3,2.1,12.8,2.7,16.8c-3.6,0.5-7.4,0.8-11.4,0.8c-10.1,0-18.9-1.6-26.7-4.9
		c3.6-2.1,7.3-4,10-4.5c11.6-2.3,14.4-5.7,17.3-8.2H426.8z"/>
	<path class="st0" d="M403.1,215.9v58.9h21.3c-1-2.6-2-5.2-2.9-7.9c-2.2-6.2-4.3-12.4-6.5-18.6c-1-2.7-1.7-12.3,3.5-10.3
		c0,0-0.1,0-0.1,0c-1.2,0.2-2.5,0.7-3.1,1.6c0,0,1,3.8,2.4,4c1.4,0.2,4.4-1.2,4.4-1.2c0.3,0.7,0.6,1.3,0.9,1.9
		c3.3,6.4,6.6,12.9,9.9,19.3c0.8,1.6,1.8,4.7,3.6,5.5c0.2,0.1,0.3,0.1,0.5,0.2v-53.4H403.1z M419.3,238.4c-0.2-0.1-0.4-0.2-0.6-0.3
		C418.9,238.2,419.1,238.2,419.3,238.4c0.9,0.3,1.5,1.2,2,2.2C420.7,239.6,420,238.8,419.3,238.4z"/>
	<path class="st0" d="M421.2,240.6c-0.5-1-1.2-1.8-2-2.2c-0.2-0.1-0.4-0.2-0.6-0.3c0.2,0,0.4,0.1,0.6,0.2
		C420.1,238.7,420.7,239.6,421.2,240.6z"/>
	<path class="st0" d="M477.1,240.1c0,12.3-2.3,22.9-7,31.8c-1.6,0.1-2.9,0.4-4.5-1.3c-2.6-2.6-4.3,0.2-6.9-0.5
		c-2.5-0.7-3.4-4.5-6.5-2.1c-1.9,0.9-3.1,2.5-5.3,1.1c-0.3-0.2-0.7-0.4-1-0.7c0.2-0.4,0.3-0.9,0.3-1.4c0-2.4-2.7-4.3-4.9-4.3
		c-0.3,0-0.6,0.1-0.9,0.2v-1.3c0.3,0.2,0.8,0.3,1.2,0.3c2.1,0,4.9-2.2,4.9-5c0-2.7-2.7-5-4.9-5c-0.5,0-0.9,0.1-1.2,0.3v-0.5
		c0.5-0.2,1-0.4,1.6-0.7c5.4-2.4,7.8-5.4,3.9-9.5c-1.8-2-4.7-0.5-5.5-0.1v-7.9c3.8,0.1,6.3-3.7,7.2-7c0.8-2.7-2.8-3.4-2.8-3.4
		c-1.4-0.3-3,0-4.4,0.6v-9.6c0-3.2-2.3-5.9-5.1-5.9h-30.4c-2.8,0-5.1,2.7-5.1,5.9v0.9c-0.4-2.1-1.3-4.1-2.9-5.3
		c-0.5-0.4-1.1-0.4-1.6,0c1,0.7,2.2,2.5,2.2,2.5s-2.3,4-2.9,4.6c-0.6,0.6-1.8,0-1.8,0l-1.1-0.5c-0.6,1.6-0.4,1.3-0.6,1.6
		c-2.1,4.5-6.5,3.9-6.8,8.8c-0.4,6.1-6.9,16.4-5.4,21.7c1.5,4.9,0.4,10.2,0.3,15.3c0,1.4-1.1,3.4-1,4.3c-1.3,1.5-6,4.7-10,7.4
		c-6.1-9.6-9.2-21.4-9.2-35.4c0-18.5,5.3-33.2,15.9-43.8c10.6-10.7,25-16.1,43.3-16.1c18.2,0,32.6,5.4,43.2,16.1
		C471.9,207,477.1,221.6,477.1,240.1z"/>
	<path class="st0" d="M478,296.9V183.1h46.6c10,0,17.3,0.3,21.9,0.8c4.6,0.5,8.5,1.4,11.8,2.5c5.8,2.2,10.2,5.5,13.2,10.1
		c3.1,4.6,4.6,10.1,4.6,16.7c0,5.1-1.1,9.6-3.4,13.5c-2.3,3.8-5.7,7-10.3,9.5c6,2.2,10.5,5.4,13.4,9.7c2.9,4.3,4.3,9.9,4.3,16.8
		c0,6.7-1.4,12.6-4.2,17.6c-2.8,5-6.9,8.8-12.2,11.5c-3.6,1.9-7.7,3.2-12.4,3.9c-4.6,0.8-12.3,1.2-23,1.2H478z M513.4,228.5h15.1
		c5,0,8.6-0.7,10.7-2.2c2.1-1.5,3.1-4,3.1-7.6c0-3.8-1.1-6.3-3.3-7.7c-2.2-1.4-7.3-2.1-15.4-2.1h-10.1V228.5z M513.4,270.3h16.9
		c5.6,0,9.6-0.8,12-2.5c2.4-1.6,3.6-4.3,3.6-8.1c0-3.8-1.2-6.4-3.6-8c-2.4-1.6-6.5-2.4-12.2-2.4h-16.6V270.3z"/>
	<path class="st0" d="M582.6,296.9V183.1h37.2v113.7H582.6z"/>
	<path class="st0" d="M626.3,296.9V183.1h36.5v83.5h49.6v30.2H626.3z"/>
	<path class="st0" d="M711.5,296.9V183.1h90.9v27.3H748v15.1h46v26.1h-46v17.6h56.6v27.6H711.5z"/>
	<path class="st1" d="M306.1,377.1h34.6c-1,15-6.3,26.6-15.8,34.9c-9.5,8.3-22.4,12.4-38.7,12.4c-18.2,0-32.6-5.3-43-16
		c-10.5-10.7-15.7-25.3-15.7-43.9c0-18.5,5.2-33.1,15.5-43.9c10.3-10.7,24.4-16.1,42.3-16.1c16.5,0,29.4,4,38.9,11.9
		c9.4,8,14.7,19.3,15.9,34.1h-35c-0.5-5.8-2.4-10.2-5.6-13.2c-3.2-3-7.8-4.4-13.7-4.4c-7.2,0-12.5,2.6-16.1,7.8
		c-3.6,5.2-5.4,13.1-5.4,23.7c0,10.3,1.9,18.2,5.7,23.5c3.8,5.3,9.4,8,16.8,8c5.7,0,10.2-1.6,13.5-4.9
		C303.6,387.8,305.5,383.1,306.1,377.1z"/>
	<path class="st1" d="M388.2,421.2l40-113.7h37l40,113.7H469l-4.2-15.1h-36.2l-4.4,15.1H388.2z M435.2,382.3h22.9l-11.4-39.4
		L435.2,382.3z"/>
	<path class="st1" d="M594.5,436.1V423c-13.2-0.5-23.5-4.1-30.7-10.6c-7.2-6.6-10.9-15.6-11-27.2h28.4c0.3,5.9,1.5,10.1,3.5,12.7
		c2,2.6,5.1,3.9,9.3,4.1l0.1-25.5c-14-3.1-24.1-7.3-30.3-12.7c-6.2-5.4-9.3-12.5-9.3-21.4c0-9.9,3.7-17.8,11.2-23.9
		c7.4-6,17.5-9.2,30.1-9.5v-10h12.4v9.8c12,0.3,21.4,3.4,28.2,9.3c6.7,5.9,10.3,14.1,10.7,24.7h-27c-0.3-4.5-1.4-8-3.4-10.3
		c-2-2.4-5-3.6-8.8-3.7v23.4c14.9,3.6,25.4,8.1,31.6,13.6c6.2,5.5,9.3,13,9.3,22.4c0,10.9-3.5,19.3-10.5,25.1
		c-7,5.8-17.6,9.1-31.7,9.9v13H594.5z M596.3,349.4v-21h-0.6c-4.5,0-7.8,0.8-10.1,2.5c-2.2,1.7-3.4,4.3-3.4,7.7c0,2.6,1,4.7,3.1,6.4
		C587.5,346.7,591.1,348.1,596.3,349.4z M605.5,401.9c4.9,0,8.7-0.9,11.2-2.6c2.5-1.7,3.8-4.3,3.8-7.8c0-3-1.1-5.4-3.2-7.1
		c-2.2-1.8-6.1-3.5-11.8-5.1V401.9z"/>
	<path class="st1" d="M696.1,421.2V307.5h36.5v38.6h34v-38.6h36.5v113.7h-36.5v-44.1h-34v44.1H696.1z"/>
	<g>
		<path class="st1" d="M238.1,183l0,0.1h25.1l0-0.1H238.1z"/>
		<path class="st1" d="M263.2,183.1l-21.7,66.7c-2.5,7.5-4.4,12.6-5.7,15.4c-1.3,2.8-2.8,4.9-4.3,6.3c-0.9,0.9-1.9,1.7-3,2.4
			c-1.3,0.8-2.7,1.4-4.3,1.9c-2.8,0.8-7.5,1.3-13.8,1.3c-1.9,0-3.9-0.1-6.2-0.1c-2.3-0.1-4.7-0.2-7.3-0.4v-19.9h7.6
			c2.6,0,4.5-0.4,5.6-1.3c1.2-0.9,1.7-2.3,1.7-4.4c0-0.9-0.1-1.8-0.4-2.9c-0.2-1.1-0.6-2.3-1.1-3.7l-17.7-48.3v54h-26.4l0.2-44.8
			c0-2.7,0-5.4,0-7.9c0-2.6,0.1-5.2,0.1-8c-1,4.7-2.2,9.8-3.6,15.4l-0.2,0.8l-11.2,44.6h-20.4l-11.4-43.6c-0.5-2-1.1-4.2-1.6-6.8
			c-0.5-2.6-1.2-6-2.1-10.4c0.1,3.9,0.2,7.3,0.3,10.1c0.1,2.8,0.1,5,0.1,6.7v43.9H90v-91h35.6l12.6,45.4c0.2,0.6,0.5,2,1,4.2
			c0.5,2.2,1.2,5.2,2.1,9.1c0.6-3.1,1.1-5.7,1.6-8c0.5-2.3,0.9-4,1.3-5.1l12.9-45.6h35.5V183h22.2l11.7,40.7l1.8-6.4l9.6-34.2H263.2
			z"/>
	</g>
</g>
</svg>
