<?xml version="1.0" encoding="UTF-8" standalone="no"?>
<svg xmlns:dc="http://purl.org/dc/elements/1.1/" xmlns:cc="http://creativecommons.org/ns#" xmlns:rdf="http://www.w3.org/1999/02/22-rdf-syntax-ns#" xmlns:svg="http://www.w3.org/2000/svg" xmlns="http://www.w3.org/2000/svg" xmlns:sodipodi="http://sodipodi.sourceforge.net/DTD/sodipodi-0.dtd" xmlns:inkscape="http://www.inkscape.org/namespaces/inkscape" width="512" height="512" id="svg29881" version="1.1" inkscape:version="0.48.4 r9939" sodipodi:docname="united_states_usa_america.svg">
  <defs id="defs29883">
    <clipPath clipPathUnits="userSpaceOnUse" id="clipPath29920">
      <path sodipodi:type="arc" style="fill:#a9b3c1;fill-opacity:1;stroke:none" id="path29922" sodipodi:cx="-514.28571" sodipodi:cy="506.64789" sodipodi:rx="260" sodipodi:ry="248.57143" d="m -254.28571,506.64789 a 260,248.57143 0 1 1 -520,0 260,248.57143 0 1 1 520,0 z" transform="matrix(0.68483669,0,0,0.71632344,705.09921,116.38888)"/>
    </clipPath>
    <clipPath clipPathUnits="userSpaceOnUse" id="clipPath3045">
      <path transform="matrix(0.94915253,0,0,0.9438202,674.98303,847.05881)" d="m -188.57141,-53.714287 a 252.85715,254.28572 0 1 1 -505.7143,0 252.85715,254.28572 0 1 1 505.7143,0 z" sodipodi:ry="254.28572" sodipodi:rx="252.85715" sodipodi:cy="-53.714287" sodipodi:cx="-441.42856" id="path3047" style="fill:#4086cd;fill-opacity:1;stroke:none" sodipodi:type="arc"/>
    </clipPath>
    <clipPath clipPathUnits="userSpaceOnUse" id="clipPath3513">
      <path sodipodi:type="arc" style="fill:#ca4638;fill-opacity:1;stroke:none" id="path3515" sodipodi:cx="-570.73621" sodipodi:cy="13.994795" sodipodi:rx="104.04572" sodipodi:ry="104.04572" d="m -466.69048,13.994795 a 104.04572,104.04572 0 1 1 -208.09145,0 104.04572,104.04572 0 1 1 208.09145,0 z" transform="matrix(1.3355237,0,0,1.3355237,-106.3397,494.85078)"/>
    </clipPath>
    <clipPath clipPathUnits="userSpaceOnUse" id="clipPath3603">
      <path transform="matrix(2.3066782,0,0,2.3066782,881.53288,384.83964)" d="m -466.69048,13.994795 a 104.04572,104.04572 0 1 1 -208.09145,0 104.04572,104.04572 0 1 1 208.09145,0 z" sodipodi:ry="104.04572" sodipodi:rx="104.04572" sodipodi:cy="13.994795" sodipodi:cx="-570.73621" id="path3605" style="fill:#ca4638;fill-opacity:1;stroke:none" sodipodi:type="arc"/>
    </clipPath>
  </defs>
  <sodipodi:namedview id="base" pagecolor="#ffffff" bordercolor="#666666" borderopacity="1.0" inkscape:pageopacity="0.0" inkscape:pageshadow="2" inkscape:zoom="0.24748737" inkscape:cx="-648.70792" inkscape:cy="743.84167" inkscape:document-units="px" inkscape:current-layer="layer1" showgrid="false" inkscape:window-width="1366" inkscape:window-height="705" inkscape:window-x="0" inkscape:window-y="26" inkscape:window-maximized="1"/>
  
  <g inkscape:label="Layer 1" inkscape:groupmode="layer" id="layer1" transform="translate(0,-540.36218)">
    <g id="g3721" transform="translate(690.97186,378.60027)">
      <g style="fill:#ffffff" transform="translate(-246.85715,429.71429)" id="g29962">
        <g style="fill:#ffffff" id="g29913" transform="matrix(1.3478789,0,0,1.3478789,27.194074,-279.4075)" clip-path="url(#clipPath29920)"/>
      </g>
      <g clip-path="url(#clipPath3513)" transform="matrix(1.7271713,0,0,1.7271713,1065.1998,-468.57086)" id="g3239">
        <path inkscape:connector-curvature="0" id="path18829" style="fill:#ffffff;fill-opacity:1;fill-rule:nonzero;stroke:none" d="m -1077.0126,588.35936 416.8823,0 0,-21.38956 -416.8823,0 0,21.38956 z"/>
        <path inkscape:connector-curvature="0" id="path18831" style="fill:#ca4638;fill-opacity:1;fill-rule:nonzero;stroke:none" d="m -1077.0126,566.96913 416.8823,0 0,-21.38139 -416.8823,0 0,21.38139 z"/>
        <path inkscape:connector-curvature="0" id="path18833" style="fill:#ffffff;fill-opacity:1;fill-rule:nonzero;stroke:none" d="m -1077.0126,631.10647 416.8823,0 0,-21.3814 -416.8823,0 0,21.3814 z"/>
        <path inkscape:connector-curvature="0" id="path18835" style="fill:#ca4638;fill-opacity:1;fill-rule:nonzero;stroke:none" d="m -1077.0126,652.49669 416.8823,0 0,-21.38956 -416.8823,0 0,21.38956 z"/>
        <path inkscape:connector-curvature="0" id="path18837" style="fill:#ca4638;fill-opacity:1;fill-rule:nonzero;stroke:none" d="m -1077.0126,609.72457 416.8823,0 0,-21.36521 -416.8823,0 0,21.36521 z"/>
        <path inkscape:connector-curvature="0" id="path18839" style="fill:#ffffff;fill-opacity:1;fill-rule:nonzero;stroke:none" d="m -1077.0126,544.57926 416.8823,0 0,-21.36522 -416.8823,0 0,21.36522 z"/>
        <path inkscape:connector-curvature="0" id="path18841" style="fill:#ca4638;fill-opacity:1;fill-rule:nonzero;stroke:none" d="m -1077.0126,481.45207 416.8823,0 0,-21.36521 -416.8823,0 0,21.36521 z"/>
        <path inkscape:connector-curvature="0" id="path18843" style="fill:#ffffff;fill-opacity:1;fill-rule:nonzero;stroke:none" d="m -1077.0126,417.31674 416.8823,0 0,-21.38956 -416.8823,0 0,21.38956 z"/>
        <path inkscape:connector-curvature="0" id="path18845" style="fill:#ca4638;fill-opacity:1;fill-rule:nonzero;stroke:none" d="m -1077.0126,438.69663 416.8823,0 0,-21.38156 -416.8823,0 0,21.38156 z"/>
        <path inkscape:connector-curvature="0" id="path18847" style="fill:#ca4638;fill-opacity:1;fill-rule:nonzero;stroke:none" d="m -1077.0126,524.22419 416.8823,0 0,-21.4059 -416.8823,0 0,21.4059 z"/>
        <path inkscape:connector-curvature="0" id="path18849" style="fill:#ca4638;fill-opacity:1;fill-rule:nonzero;stroke:none" d="m -1077.0126,395.92651 416.8823,0 0,-21.34087 -416.8823,0 0,21.34087 z"/>
        <path inkscape:connector-curvature="0" id="path18851" style="fill:#ffffff;fill-opacity:1;fill-rule:nonzero;stroke:none" d="m -1077.0126,460.08686 416.8823,0 0,-21.38973 -416.8823,0 0,21.38973 z"/>
        <path inkscape:connector-curvature="0" id="path18853" style="fill:#ffffff;fill-opacity:1;fill-rule:nonzero;stroke:none" d="m -1077.0126,502.81729 416.8823,0 0,-21.36522 -416.8823,0 0,21.36522 z"/>
      </g>
      <path clip-path="url(#clipPath3603)" inkscape:connector-curvature="0" id="path3517" style="fill:#356ba0;fill-opacity:1;fill-rule:nonzero;stroke:none" d="m -674.97189,436.92193 240,0 0,-259.8008 -240,0 0,259.8008 z"/>
      <path d="m -491.34675,211.87268 1.79508,5.57678 5.85565,0 -4.74029,3.44447 1.83442,5.57677 -4.7436,-3.44789 -4.77964,3.44789 1.83442,-5.57677 -4.74045,-3.44447 5.85581,0 1.82907,-5.57678" style="fill:#ffffff;fill-opacity:1;fill-rule:nonzero;stroke:none" id="path18857" inkscape:connector-curvature="0"/>
      <path d="m -491.34675,260.84986 1.79508,5.57336 5.85565,0 -4.74029,3.44789 1.83442,5.57336 -4.7436,-3.40826 -4.77964,3.40826 1.83442,-5.57336 -4.74045,-3.44789 5.85581,0 1.82907,-5.57336" style="fill:#ffffff;fill-opacity:1;fill-rule:nonzero;stroke:none" id="path18859" inkscape:connector-curvature="0"/>
      <path d="m -491.34675,309.85328 1.79508,5.58648 5.85565,0 -4.74029,3.43477 1.83442,5.58648 -4.7436,-3.44762 -4.77964,3.44762 1.83442,-5.58648 -4.74045,-3.43477 5.85581,0 1.82907,-5.58648" style="fill:#ffffff;fill-opacity:1;fill-rule:nonzero;stroke:none" id="path18861" inkscape:connector-curvature="0"/>
      <path d="m -491.34675,359.9424 1.79508,5.613 5.85565,0 -4.74029,3.44762 1.83442,5.61299 -4.7436,-3.48725 -4.77964,3.48725 1.83442,-5.61299 -4.74045,-3.44762 5.85581,0 1.82907,-5.613" style="fill:#ffffff;fill-opacity:1;fill-rule:nonzero;stroke:none" id="path18863" inkscape:connector-curvature="0"/>
      <path d="m -491.34675,407.80424 1.79508,5.58673 5.85565,0 -4.74029,3.47388 1.83442,5.57362 -4.7436,-3.47414 -4.77964,3.47414 1.83442,-5.57362 -4.74045,-3.47388 5.85581,0 1.82907,-5.58673" style="fill:#ffffff;fill-opacity:1;fill-rule:nonzero;stroke:none" id="path18865" inkscape:connector-curvature="0"/>
      <path d="m -535.28514,211.87268 1.80814,5.57678 5.88209,0 -4.75682,3.44447 1.8083,5.57677 -4.74014,-3.44789 -4.75352,3.44789 1.80295,-5.57677 -4.74014,-3.44447 5.88178,0 1.80814,-5.57678" style="fill:#ffffff;fill-opacity:1;fill-rule:nonzero;stroke:none" id="path18867" inkscape:connector-curvature="0"/>
      <path d="m -535.28514,260.84986 1.80814,5.57336 5.88209,0 -4.75682,3.44789 1.8083,5.57336 -4.74014,-3.40826 -4.75352,3.40826 1.80295,-5.57336 -4.74014,-3.44789 5.88178,0 1.80814,-5.57336" style="fill:#ffffff;fill-opacity:1;fill-rule:nonzero;stroke:none" id="path18869" inkscape:connector-curvature="0"/>
      <path d="m -535.28514,309.85328 1.80814,5.58648 5.88209,0 -4.75682,3.43477 1.8083,5.58648 -4.74014,-3.44762 -4.75352,3.44762 1.80295,-5.58648 -4.74014,-3.43477 5.88178,0 1.80814,-5.58648" style="fill:#ffffff;fill-opacity:1;fill-rule:nonzero;stroke:none" id="path18871" inkscape:connector-curvature="0"/>
      <path d="m -535.28514,359.9424 1.80814,5.613 5.88209,0 -4.75682,3.44762 1.8083,5.61299 -4.74014,-3.48725 -4.75352,3.48725 1.80295,-5.61299 -4.74014,-3.44762 5.88178,0 1.80814,-5.613" style="fill:#ffffff;fill-opacity:1;fill-rule:nonzero;stroke:none" id="path18873" inkscape:connector-curvature="0"/>
      <path d="m -535.28514,407.80424 1.80814,5.58673 5.88209,0 -4.75682,3.47388 1.8083,5.57362 -4.74014,-3.47414 -4.75352,3.47414 1.80295,-5.57362 -4.74014,-3.47388 5.88178,0 1.80814,-5.58673" style="fill:#ffffff;fill-opacity:1;fill-rule:nonzero;stroke:none" id="path18875" inkscape:connector-curvature="0"/>
      <path d="m -579.1875,260.84986 1.79492,5.57336 5.8555,0 -4.74014,3.44789 1.82923,5.57336 -4.7403,-3.40826 -4.77964,3.40826 1.83458,-5.57336 -4.7436,-3.44789 5.84574,0 1.84229,-5.57336" style="fill:#ffffff;fill-opacity:1;fill-rule:nonzero;stroke:none" id="path18879" inkscape:connector-curvature="0"/>
      <path d="m -579.1875,309.85328 1.79492,5.58648 5.8555,0 -4.74014,3.43477 1.82923,5.58648 -4.7403,-3.44762 -4.77964,3.44762 1.83458,-5.58648 -4.7436,-3.43477 5.84574,0 1.84229,-5.58648" style="fill:#ffffff;fill-opacity:1;fill-rule:nonzero;stroke:none" id="path18881" inkscape:connector-curvature="0"/>
      <path d="m -579.1875,359.9424 1.79492,5.613 5.8555,0 -4.74014,3.44762 1.82923,5.61299 -4.7403,-3.48725 -4.77964,3.48725 1.83458,-5.61299 -4.7436,-3.44762 5.84574,0 1.84229,-5.613" style="fill:#ffffff;fill-opacity:1;fill-rule:nonzero;stroke:none" id="path18883" inkscape:connector-curvature="0"/>
      <path d="m -579.1875,407.80424 1.79492,5.58673 5.8555,0 -4.74014,3.47388 1.82923,5.57362 -4.7403,-3.47414 -4.77964,3.47414 1.83458,-5.57362 -4.7436,-3.47388 5.84574,0 1.84229,-5.58673" style="fill:#ffffff;fill-opacity:1;fill-rule:nonzero;stroke:none" id="path18885" inkscape:connector-curvature="0"/>
      <path d="m -623.13912,309.85328 1.80563,5.58648 5.88193,0 -4.74045,3.43477 1.8083,5.58648 -4.75352,-3.44762 -4.7436,3.44762 1.80814,-5.58648 -4.75336,-3.43477 5.85566,0 1.83442,-5.58648" style="fill:#ffffff;fill-opacity:1;fill-rule:nonzero;stroke:none" id="path18891" inkscape:connector-curvature="0"/>
      <path d="m -623.13912,359.9424 1.80563,5.613 5.88193,0 -4.74045,3.44762 1.8083,5.61299 -4.75352,-3.48725 -4.7436,3.48725 1.80814,-5.61299 -4.75336,-3.44762 5.85566,0 1.83442,-5.613" style="fill:#ffffff;fill-opacity:1;fill-rule:nonzero;stroke:none" id="path18893" inkscape:connector-curvature="0"/>
      <path d="m -623.13912,407.80424 1.80563,5.58673 5.88193,0 -4.74045,3.47388 1.8083,5.57362 -4.75352,-3.47414 -4.7436,3.47414 1.80814,-5.57362 -4.75336,-3.47388 5.85566,0 1.83442,-5.58673" style="fill:#ffffff;fill-opacity:1;fill-rule:nonzero;stroke:none" id="path18895" inkscape:connector-curvature="0"/>
      <path d="m -468.95782,236.33489 1.80563,5.61299 5.88193,0 -4.75351,3.40826 1.80814,5.61299 -4.7403,-3.44448 -4.75666,3.44448 1.8212,-5.61299 -4.75336,-3.40826 5.86872,0 1.82136,-5.61299" style="fill:#ffffff;fill-opacity:1;fill-rule:nonzero;stroke:none" id="path18907" inkscape:connector-curvature="0"/>
      <path d="m -468.95782,286.92606 1.80563,5.57677 5.88193,0 -4.75351,3.44448 1.80814,5.57677 -4.7403,-3.44762 -4.75666,3.44762 1.8212,-5.57677 -4.75336,-3.44448 5.86872,0 1.82136,-5.57677" style="fill:#ffffff;fill-opacity:1;fill-rule:nonzero;stroke:none" id="path18909" inkscape:connector-curvature="0"/>
      <path d="m -469.40714,336.49371 1.82136,5.57363 5.86888,0 -4.74361,3.44762 1.80831,5.57363 -4.75336,-3.47413 -4.7403,3.47413 1.80547,-5.57363 -4.75321,-3.44762 5.88178,0 1.80814,-5.57363" style="fill:#ffffff;fill-opacity:1;fill-rule:nonzero;stroke:none" id="path18911" inkscape:connector-curvature="0"/>
      <path d="m -469.84355,385.46775 1.82136,5.57677 5.88178,0 -4.76643,3.44447 1.82924,5.57678 -4.76674,-3.43477 -4.72692,3.43477 1.80814,-5.57678 -4.76972,-3.44447 5.88193,0 1.80814,-5.57677" style="fill:#ffffff;fill-opacity:1;fill-rule:nonzero;stroke:none" id="path18913" inkscape:connector-curvature="0"/>
      <path d="m -512.89936,236.33489 1.82136,5.61299 5.88194,0 -4.76658,3.40826 1.82923,5.61299 -4.76642,-3.44448 -4.75352,3.44448 1.83443,-5.61299 -4.74361,-3.40826 5.8555,0 1.8083,-5.61299" style="fill:#ffffff;fill-opacity:1;fill-rule:nonzero;stroke:none" id="path18915" inkscape:connector-curvature="0"/>
      <path d="m -512.89936,286.92606 1.82136,5.57677 5.88194,0 -4.76658,3.44448 1.82923,5.57677 -4.76642,-3.44762 -4.75352,3.44762 1.83443,-5.57677 -4.74361,-3.44448 5.8555,0 1.8083,-5.57677" style="fill:#ffffff;fill-opacity:1;fill-rule:nonzero;stroke:none" id="path18917" inkscape:connector-curvature="0"/>
      <path d="m -513.32271,336.49371 1.8083,5.57363 5.88162,0 -4.74014,3.44762 1.80562,5.57363 -4.75352,-3.47413 -4.74013,3.47413 1.80814,-5.57363 -4.75667,-3.44762 5.85896,0 1.82923,-5.57363" style="fill:#ffffff;fill-opacity:1;fill-rule:nonzero;stroke:none" id="path18919" inkscape:connector-curvature="0"/>
      <path d="m -513.75881,385.46775 1.80814,5.57677 5.86887,0 -4.7403,3.44447 1.80815,5.57678 -4.74361,-3.43477 -4.75351,3.43477 1.8083,-5.57678 -4.74046,-3.44447 5.86888,0 1.81868,-5.57677" style="fill:#ffffff;fill-opacity:1;fill-rule:nonzero;stroke:none" id="path18921" inkscape:connector-curvature="0"/>
      <path d="m -556.82454,234.60623 1.81853,5.57336 5.86872,0 -4.74014,3.44789 1.82136,5.57335 -4.76642,-3.44447 -4.7436,3.44447 1.82136,-5.57335 -4.7532,-3.44789 5.86856,0 1.80814,-5.57336" style="fill:#ffffff;fill-opacity:1;fill-rule:nonzero;stroke:none" id="path18923" inkscape:connector-curvature="0"/>
      <path d="m -556.82454,285.15802 1.81853,5.57337 5.86872,0 -4.74014,3.47412 1.82136,5.54713 -4.76642,-3.40826 -4.7436,3.40826 1.82136,-5.54713 -4.7532,-3.47412 5.86856,0 1.80814,-5.57337" style="fill:#ffffff;fill-opacity:1;fill-rule:nonzero;stroke:none" id="path18925" inkscape:connector-curvature="0"/>
      <path d="m -557.24789,334.72569 1.78973,5.57336 5.88209,0 -4.75352,3.44788 1.82121,5.57336 -4.7403,-3.44762 -4.76988,3.44762 1.82136,-5.57336 -4.74045,-3.44788 5.86887,0 1.82136,-5.57336" style="fill:#ffffff;fill-opacity:1;fill-rule:nonzero;stroke:none" id="path18927" inkscape:connector-curvature="0"/>
      <path d="m -557.69721,383.7257 1.82136,5.58674 5.86872,0 -4.74345,3.40826 1.80814,5.61299 -4.7532,-3.44789 -4.74045,3.44789 1.80562,-5.61299 -4.7532,-3.40826 5.86856,0 1.82136,-5.58674" style="fill:#ffffff;fill-opacity:1;fill-rule:nonzero;stroke:none" id="path18929" inkscape:connector-curvature="0"/>
      <path d="m -600.72705,284.65939 1.80295,5.57337 5.87202,0 -4.75667,3.48725 1.80815,5.57336 -4.72724,-3.47387 -4.76642,3.47387 1.82923,-5.57336 -4.75351,-3.48725 5.86887,0 1.82136,-5.57337" style="fill:#ffffff;fill-opacity:1;fill-rule:nonzero;stroke:none" id="path18933" inkscape:connector-curvature="0"/>
      <path d="m -601.16315,334.22364 1.79508,5.58676 5.88193,0 -4.75351,3.47385 1.81868,5.57363 -4.74014,-3.47071 -4.75351,3.47071 1.80562,-5.57363 -4.74014,-3.47385 5.8555,0 1.83442,-5.58676" style="fill:#ffffff;fill-opacity:1;fill-rule:nonzero;stroke:none" id="path18935" inkscape:connector-curvature="0"/>
      <path d="m -601.61279,383.20082 1.82137,5.58676 5.86855,0 -4.7532,3.47385 1.80295,5.57363 -4.74045,-3.47413 -4.74014,3.47413 1.8083,-5.57363 -4.75667,-3.47385 5.86887,0 1.82121,-5.58676" style="fill:#ffffff;fill-opacity:1;fill-rule:nonzero;stroke:none" id="path18937" inkscape:connector-curvature="0"/>
      <path d="m -645.11807,333.37728 1.8212,5.57678 5.86856,0 -4.7532,3.44447 1.82136,5.57677 -4.75666,-3.44762 -4.74014,3.44762 1.80814,-5.57677 -4.7532,-3.44447 5.88178,0 1.80546,-5.57678" style="fill:#ffffff;fill-opacity:1;fill-rule:nonzero;stroke:none" id="path18943" inkscape:connector-curvature="0"/>
      <path d="m -645.53812,382.35446 1.79256,5.57363 5.88194,0 -4.75352,3.44762 1.82136,5.57363 -4.74045,-3.44448 -4.76973,3.44448 1.82121,-5.57363 -4.7403,-3.44762 5.86887,0 1.82136,-5.57363" style="fill:#ffffff;fill-opacity:1;fill-rule:nonzero;stroke:none" id="path18945" inkscape:connector-curvature="0"/>
      <path d="m -447.43149,211.87268 1.79508,5.57678 5.88178,0 -4.74014,3.44447 1.80295,5.57677 -4.74045,-3.44789 -4.75321,3.44789 1.80815,-5.57677 -4.74345,-3.44447 5.86887,0 1.82121,-5.57678" style="fill:#ffffff;fill-opacity:1;fill-rule:nonzero;stroke:none" id="path18947" inkscape:connector-curvature="0"/>
      <path d="m -447.43149,260.84986 1.79508,5.57336 5.88178,0 -4.74014,3.44789 1.80295,5.57336 -4.74045,-3.40826 -4.75321,3.40826 1.80815,-5.57336 -4.74345,-3.44789 5.86887,0 1.82121,-5.57336" style="fill:#ffffff;fill-opacity:1;fill-rule:nonzero;stroke:none" id="path18949" inkscape:connector-curvature="0"/>
      <path d="m -447.43149,309.85328 1.79508,5.58648 5.88178,0 -4.74014,3.43477 1.80295,5.58648 -4.74045,-3.44762 -4.75321,3.44762 1.80815,-5.58648 -4.74345,-3.43477 5.86887,0 1.82121,-5.58648" style="fill:#ffffff;fill-opacity:1;fill-rule:nonzero;stroke:none" id="path18951" inkscape:connector-curvature="0"/>
      <path d="m -447.43149,359.9424 1.79508,5.613 5.88178,0 -4.74014,3.44762 1.80295,5.61299 -4.74045,-3.48725 -4.75321,3.48725 1.80815,-5.61299 -4.74345,-3.44762 5.86887,0 1.82121,-5.613" style="fill:#ffffff;fill-opacity:1;fill-rule:nonzero;stroke:none" id="path18953" inkscape:connector-curvature="0"/>
      <path d="m -447.43149,407.80424 1.79508,5.58673 5.88178,0 -4.74014,3.47388 1.80295,5.57362 -4.74045,-3.47414 -4.75321,3.47414 1.80815,-5.57362 -4.74345,-3.47388 5.86887,0 1.82121,-5.58673" style="fill:#ffffff;fill-opacity:1;fill-rule:nonzero;stroke:none" id="path18955" inkscape:connector-curvature="0"/>
      <path inkscape:connector-curvature="0" id="path3711" style="fill:#ffffff;fill-opacity:1;fill-rule:nonzero;stroke:none" d="m -468.95782,189.61129 1.80563,5.58673 5.88193,0 -4.74045,3.47388 1.8083,5.57362 -4.75352,-3.47414 -4.7436,3.47414 1.80814,-5.57362 -4.75336,-3.47388 5.85566,0 1.83442,-5.58673"/>
      <path inkscape:connector-curvature="0" id="path3713" style="fill:#ffffff;fill-opacity:1;fill-rule:nonzero;stroke:none" d="m -663.54522,407.80424 1.80563,5.58673 5.88193,0 -4.74045,3.47388 1.8083,5.57362 -4.75352,-3.47414 -4.7436,3.47414 1.80814,-5.57362 -4.75336,-3.47388 5.85566,0 1.83442,-5.58673"/>
      <path inkscape:connector-curvature="0" id="path3715" style="fill:#ffffff;fill-opacity:1;fill-rule:nonzero;stroke:none" d="m -659.50461,359.9424 1.80563,5.613 5.88193,0 -4.74045,3.44762 1.8083,5.61299 -4.75352,-3.48725 -4.7436,3.48725 1.80814,-5.61299 -4.75336,-3.44762 5.85566,0 1.83442,-5.613"/>
      <path inkscape:connector-curvature="0" id="path3719" style="fill:#ffffff;fill-opacity:1;fill-rule:nonzero;stroke:none" d="m -512.89936,193.90848 1.82136,5.61299 5.88194,0 -4.76658,3.40826 1.82923,5.61299 -4.76642,-3.44448 -4.75352,3.44448 1.83443,-5.61299 -4.74361,-3.40826 5.8555,0 1.8083,-5.61299"/>
    </g>
  </g>

	<metadata>
		<rdf:RDF xmlns:rdf="http://www.w3.org/1999/02/22-rdf-syntax-ns#" xmlns:rdfs="http://www.w3.org/2000/01/rdf-schema#" xmlns:dc="http://purl.org/dc/elements/1.1/">
			<rdf:Description about="https://iconscout.com/legal#licenses" dc:title="united_states_usa_america_flag_circle" dc:description="united_states_usa_america_flag_circle" dc:publisher="Iconscout" dc:date="2017-05-28" dc:format="image/svg+xml" dc:language="en">
				<dc:creator>
					<rdf:Bag>
						<rdf:li>Vignesh Oviyan</rdf:li>
					</rdf:Bag>
				</dc:creator>
			</rdf:Description>
		</rdf:RDF>
    </metadata></svg>
